<?xml version="1.0" encoding="utf-8"?>
<?xml-stylesheet type="text/xsl" href="rss1.xsl"?>
<rss version="2.0" xmlns:atom="http://www.w3.org/2005/Atom" xmlns:content="http://purl.org/rss/1.0/modules/content/" xmlns:dc="http://purl.org/dc/elements/1.1/" xmlns:media="http://search.yahoo.com/mrss/">
<channel>
 <title>Getty</title>
 <link>http://www.gettyimg.com/</link>
 <atom:link href="http://www.gettyimg.com/" rel="self" type="application/rss+xml" />

 
                <item>
                <title><![CDATA[【Albums (lossy)】Dolby Atmos - James Arthur - James Arthur - [E-AC3-JOC | 16bits/48kHz] (Dolby Atmos)]]></title>
                <link><![CDATA[https://sharemania.us/threads/james-arthur-james-arthur-e-ac3-joc-16bits-48khz-dolby-atmos.230675/]]></link>
                <description><![CDATA[<article>
<blockquote class="messageText SelectQuoteContainer ugc baseHtml">
<img src="https://a5.mzstatic.com/us/r1000/0/Features115/v4/dd/c4/c4/ddc4c4e1-9431-909b-881b-2df8a766f374/dj.jfyiifbv.jpg" class="bbCodeImage LbImage" alt="[​IMG]" data-url="https://a5.mzstatic.com/us/r1000/0/Features115/v4/dd/c4/c4/ddc4c4e1-9431-909b-881b-2df8a766f374/dj.jfyiifbv.jpg" style=""><br>
<br>
<span style="font-family: 'Arial'"><span style="font-size: 15px"><span style="color: #000255"><b> Enjoy!<br>
</b></span></span></span><br>
<br>
<div class="ToggleTriggerAnchor bbCodeSpoilerContainer">
<button type="button" class="button bbCodeSpoilerButton ToggleTrigger Tooltip JsOnly" data-target="> .SpoilerTarget"><span>Spoiler: <span class="SpoilerTitle">Copyright</span></span></button>
<div class="SpoilerTarget bbCodeSpoilerText">© 2013 Simco Limited</div>
</div><br>
<div class="bbCodeBlock bbCodeVfcHH HiddenContent">
<div class="attribution type">Hidden Content:</div>
<blockquote>You must reply before you can see the hidden data contained here.</blockquote>
</div><br>
<br>
<div class="ToggleTriggerAnchor bbCodeSpoilerContainer">
<button type="button" class="button bbCodeSpoilerButton ToggleTrigger Tooltip JsOnly" data-target="> .SpoilerTarget"><span>Spoiler: <span class="SpoilerTitle">mediainfo</span></span></button>
<div class="SpoilerTarget bbCodeSpoilerText">
<div class="bbCodeBlock bbCodeHtml">
<div class="type">HTML:</div>
<pre>General
Complete name :James Arthur - [2013]\02. Get Down.m4a
Format : MPEG-4
Format profile : Base Media / Version 2
Codec ID : mp42 (mp42/dby1)
File size : 22.4 MiB
Duration : 3 min 46 s
Overall bit rate mode : Constant
Overall bit rate : 827 kb/s
Album : James Arthur
Album/Performer : James Arthur
Part/Position : 1
Part/Total : 1
Track name : Get Down
Track name/Position : 2
Track name/Total : 13
Performer : James Arthur
Composer : Robert Mickens / Richard Westfield / Mustapha Omer / Gene C. Redd / Cleveland Horne / Dennis Thomas / Ronald Bell / Claydes Charles Smith / James Murray / Roy Handy / George Brown / James Arthur / Robert Bell / Wayne Hector / Jonny Coffer / GENE REDD
Lyricist : Claydes Charles Smith / Cleveland Horne / Gene C. Redd / Mustapha Omer / Richard Westfield / Robert Mickens / Ronald Bell / James Murray / Roy Handy / George Brown / James Arthur / Robert Bell / Wayne Hector / Jonny Coffer / GENE REDD / Dennis Thomas
Producer : Mojam Music / Craze &amp; Hoax
Genre : Pop
Recorded date : 2013-11-04
Encoded date : 2023-10-18 23:15:14 UTC
Tagged date : 2023-10-18 23:15:14 UTC
ISRC : GBARL2200159
Copyright : (P) 2013 Simco Limited
Cover : Yes
Lyrics : Outside there's a bird and it is singing / And outside of my window, there's a life / I feel like someone's talking to my spirit / They tell me that there's reasons to survive / / I could draw you a picture / I could write all my fears / I could read you a scripture of tales / / And I know, no matter how much colder / Or how much I carry on my shoulders / As long as I'm standing, I'll be closer / Cause it ain't over, 'til it's over / But we don't get down / No we don't get down / We can turn this 'round / And maybe / It's today ahh yeah / / Cause all these scenes of grief got my head spinnin' / And we're dancing on the edge of a knife / And could I be your hero or your villain / Uhh, I guess it just depends in whose eyes / / I could draw you a picture / I could write on my fist / I could read you a scripture of this / / And I know, no matter how much colder / Or how much I carry on my shoulders / As long as I'm standing, I'll be closer / Cause it ain't over, 'til it's over / But we don't get down / No we don't get down / We can turn this 'round / And maybe / It's today ahh yeah / / And I don't get down / Cause you lift me up / No I don't get down, Cause you lift me up And i know, no mather how much colder / / Or how much I carry on my shoulders / As long as I'm standing, I'll be closer / Cause it ain't over / Til' it's over / But we don't get down / No we don't get down / We can turn this round / And maybe / It's today ahh yeah
Rating : Clean
Vocal : James Murray / Lurine Cato / James Arthur / Joy Farrukh / Mustafa Omer / Xavier Barnett
UPC : 886449881802
Strings : Jonny Coffer
Recording Engineer : Mojam Music
Piano : Jonny Coffer
Performance Arranger : Priscilla Jones
Mixing Engineer : Emre Ramazanoglu / Serban Ghenea
Mastering Engineer : Tom Coyne
Engineer : James Murray / Mustafa Omer / John Hanes
Associated Performer : Mustafa Omer / James Murray / James Arthur

Audio
ID : 1
Format : E-AC-3 JOC
Format/Info : Enhanced AC-3 with Joint Object Coding
Commercial name : Dolby Digital Plus with Dolby Atmos
Codec ID : ec-3
Duration : 3 min 46 s
Bit rate mode : Constant
Bit rate : 768 kb/s
Channel(s) : 6 channels
Channel layout : L R C LFE Ls Rs
Sampling rate : 48.0 kHz
Frame rate : 31.250 FPS (1536 SPF)
Compression mode : Lossy
Stream size : 20.8 MiB (93%)
Service kind : Complete Main
Default : Yes
Alternate group : 2
Encoded date : 2023-10-18 23:15:14 UTC
Tagged date : 2023-10-18 23:15:14 UTC
Complexity index : 16
Number of dynamic objects : 15
Bed channel count : 1 channel
Bed channel configuration : LFE
</pre>
</div></div>
</div>
<div class="messageTextEndMarker">&nbsp;</div>
</blockquote>
</article>]]></description>
                <author><![CDATA[marcomdz05]]></author>
                </item>

                
                <item>
                <title><![CDATA[【Requests】[REQ AUD] - Syleena johnson - I am your woman remixes]]></title>
                <link><![CDATA[https://sharemania.us/threads/syleena-johnson-i-am-your-woman-remixes.230671/]]></link>
                <description><![CDATA[<article>
<blockquote class="messageText SelectQuoteContainer ugc baseHtml">
Please i would like to get all versions and remixes in lossless of this amazing song by syleena
<div class="messageTextEndMarker">&nbsp;</div>
</blockquote>
</article>]]></description>
                <author><![CDATA[borisnikolic851]]></author>
                </item>

                
                <item>
                <title><![CDATA[【Singles (lossless)】FLAC - will.i.am &amp; J Balvin - LET'S GO | Qobuz Hi-Res 24bit / 48.0kHz]]></title>
                <link><![CDATA[https://sharemania.us/threads/will-i-am-j-balvin-lets-go-qobuz-hi-res-24bit-48-0khz.230673/]]></link>
                <description><![CDATA[<article>
<blockquote class="messageText SelectQuoteContainer ugc baseHtml">
<div style="text-align: center"><img src="https://static.qobuz.com/images/covers/ma/qa/xhphtfjyoqama_600.jpg" class="bbCodeImage LbImage" alt="[​IMG]" data-url="https://static.qobuz.com/images/covers/ma/qa/xhphtfjyoqama_600.jpg" style=""><br>
<div class="bbCodeBlock bbCodeVfcHH HiddenContent">
<div class="attribution type">Hidden Content:</div>
<blockquote>You must reply before you can see the hidden data contained here.</blockquote>
</div></div>
<div class="messageTextEndMarker">&nbsp;</div>
</blockquote>
</article>]]></description>
                <author><![CDATA[Yennefer]]></author>
                </item>

                
                <item>
                <title><![CDATA[【Singles (lossless)】FLAC - Steve Aoki &amp; Paris Hilton - Lighter | Qobuz CD 16bit / 44.1kHz]]></title>
                <link><![CDATA[https://sharemania.us/threads/steve-aoki-paris-hilton-lighter-qobuz-cd-16bit-44-1khz.230676/]]></link>
                <description><![CDATA[<article>
<blockquote class="messageText SelectQuoteContainer ugc baseHtml">
thanks
<div class="messageTextEndMarker">&nbsp;</div>
</blockquote>
</article>]]></description>
                <author><![CDATA[Yennefer]]></author>
                </item>

                
                <item>
                <title><![CDATA[【Singles (lossless)】FLAC - 21 Savage &amp; d4vd - Call Me Revenge (Call of Duty: Modern Warfare 3) | Qobuz Hi-Res 24bit / 48.0kHz]]></title>
                <link><![CDATA[https://sharemania.us/threads/21-savage-d4vd-call-me-revenge-call-of-duty-modern-warfare-3-qobuz-hi-res-24bit-48-0khz.230677/]]></link>
                <description><![CDATA[<article>
<blockquote class="messageText SelectQuoteContainer ugc baseHtml">
<div style="text-align: center"><img src="https://static.qobuz.com/images/covers/hc/rj/bdn1yauu7rjhc_600.jpg" class="bbCodeImage LbImage" alt="[​IMG]" data-url="https://static.qobuz.com/images/covers/hc/rj/bdn1yauu7rjhc_600.jpg" style=""><br>
<div class="bbCodeBlock bbCodeVfcHH HiddenContent">
<div class="attribution type">Hidden Content:</div>
<blockquote>You must reply before you can see the hidden data contained here.</blockquote>
</div></div>
<div class="messageTextEndMarker">&nbsp;</div>
</blockquote>
</article>]]></description>
                <author><![CDATA[Debil]]></author>
                </item>

                
                <item>
                <title><![CDATA[【Singles (lossless)】FLAC - Kali Uchis - Te Mata | Qobuz Hi-Res 24bit / 48.0kHz]]></title>
                <link><![CDATA[https://sharemania.us/threads/kali-uchis-te-mata-qobuz-hi-res-24bit-48-0khz.230674/]]></link>
                <description><![CDATA[<article>
<blockquote class="messageText SelectQuoteContainer ugc baseHtml">
Thanks
<div class="messageTextEndMarker">&nbsp;</div>
</blockquote>
</article>]]></description>
                <author><![CDATA[Debil]]></author>
                </item>

                
                <item>
                <title><![CDATA[【Requests】[REQ AUD] - Various Artists - Crossroads: Special Edition (FLAC)]]></title>
                <link><![CDATA[https://sharemania.us/threads/various-artists-crossroads-special-edition-flac.230672/]]></link>
                <description><![CDATA[<article>
<blockquote class="messageText SelectQuoteContainer ugc baseHtml">
<b><span style="font-size: 18px">21 Savage &amp; d4vd - Call Me Revenge (Call of Duty: Modern Warfare 3)</span></b><br>
<img src="https://thumbs2.imgbox.com/cc/51/SGcO6RnO_t.jpg" class="bbCodeImage LbImage" alt="[​IMG]" data-url="https://thumbs2.imgbox.com/cc/51/SGcO6RnO_t.jpg" style=""><br>
<span style="font-family: 'Courier New'"><span style="font-size: 10px">Album/Performer: 21 Savage / d4vd<br>
Track name : Call Me Revenge (Call of Duty: Modern Warfare 3)<br>
Performer : 21 Savage / d4vd<br>
Recorded date: 2023<br>
Format : FLAC<br>
Duration: 2 min 46 s<br>
Bit rate mode : Variable<br>
Bit rate: 1 755 kb/s<br>
Sampling rate: 48.0 kHz<br>
Bit depth: 24 bits<br>
Compression mode : Lossless<br>
Stream size: 34.8 MiB (99%)<br>
Copyright : (P) 2023 Slaughter Gang, LLC under exclusive license to Epic Records, a division of Sony Music Entertainment</span></span><br>
<br>
<br>
<br>
<span style="font-size: 18px"><b>
<div class="bbCodeBlock bbCodeVfcHH HiddenContent">
<div class="attribution type">Hidden Content:</div>
<blockquote>You must reply before you can see the hidden data contained here.</blockquote>
</div></b>
<div class="bbCodeBlock bbCodeVfcHH HiddenContent">
<div class="attribution type">Hidden Content:</div>
<blockquote>You must reply before you can see the hidden data contained here.</blockquote>
</div></span>
<div class="messageTextEndMarker">&nbsp;</div>
</blockquote>
</article>]]></description>
                <author><![CDATA[grant12]]></author>
                </item>

                </channel></rss>